<?xml version="1.0" standalone="no"?><!DOCTYPE svg PUBLIC "-//W3C//DTD SVG 1.1//EN" "http://www.w3.org/Graphics/SVG/1.1/DTD/svg11.dtd"><svg t="1567667613103" class="icon" viewBox="0 0 1024 1024" version="1.1" xmlns="http://www.w3.org/2000/svg" p-id="12581" xmlns:xlink="http://www.w3.org/1999/xlink" width="200" height="200"><defs><style type="text/css"></style></defs><path d="M851.2 64H166.4C115.2 64 64 108.8 64 166.4v684.8C64 908.8 115.2 960 166.4 960h684.8c57.6 0 102.4-44.8 102.4-102.4V166.4C960 108.8 908.8 64 851.2 64zM800 544H544v256c0 19.2-12.8 32-32 32s-32-12.8-32-32V544H224c-19.2 0-32-12.8-32-32s12.8-32 32-32h256V224c0-19.2 12.8-32 32-32s32 12.8 32 32v256h256c19.2 0 32 12.8 32 32s-12.8 32-32 32z" p-id="12582"></path></svg>