<?xml version="1.0" standalone="no"?><!DOCTYPE svg PUBLIC "-//W3C//DTD SVG 1.1//EN" "http://www.w3.org/Graphics/SVG/1.1/DTD/svg11.dtd"><svg t="1568166872974" class="icon" viewBox="0 0 1024 1024" version="1.1" xmlns="http://www.w3.org/2000/svg" p-id="3590" xmlns:xlink="http://www.w3.org/1999/xlink" width="200" height="200"><defs><style type="text/css"></style></defs><path d="M512 0c281.6 0 512 230.4 512 512s-230.4 512-512 512-512-230.4-512-512 230.4-512 512-512z m32 480V256c0-19.2-12.8-32-32-32s-32 12.8-32 32v224H256c-19.2 0-32 12.8-32 32s12.8 32 32 32h224V768c0 19.2 12.8 32 32 32s32-12.8 32-32V544H768c19.2 0 32-12.8 32-32s-12.8-32-32-32H544z" p-id="3591"></path></svg>