<svg xmlns="http://www.w3.org/2000/svg" xmlns:xlink="http://www.w3.org/1999/xlink" width="20" height="20" viewBox="0 0 20 20">
  <defs>
    <style>
      .cls-1, .cls-5 {
        fill: #ccc;
      }

      .cls-1 {
        stroke: #707070;
      }

      .cls-2 {
        fill: none;
      }

      .cls-3 {
        clip-path: url(#clip-path);
      }

      .cls-4 {
        clip-path: url(#clip-path-2);
      }
    </style>
    <clipPath id="clip-path">
      <rect class="cls-2" width="20" height="20"/>
    </clipPath>
    <clipPath id="clip-path-2">
      <rect id="矩形_1648" data-name="矩形 1648" class="cls-1" width="20" height="20" transform="translate(170 1136)"/>
    </clipPath>
  </defs>
  <g id="组件_6_2" data-name="组件 6 – 2" class="cls-3">
    <g id="蒙版组_884" data-name="蒙版组 884" class="cls-4" transform="translate(-170 -1136)">
      <path id="日期" class="cls-5" d="M15.656,2.292V1.161A.26.26,0,0,0,15.4.906H14.279a.26.26,0,0,0-.256.256V2.282a.26.26,0,0,1-.256.256H6.078a.26.26,0,0,1-.256-.256V1.161A.26.26,0,0,0,5.567.906H4.446a.26.26,0,0,0-.256.256V2.282a.26.26,0,0,1-.256.256H1.161a.26.26,0,0,0-.256.256V18.931H18.931V2.8a.26.26,0,0,0-.256-.256H15.912a.26.26,0,0,1-.256-.256ZM17.042,17.3H2.8a.26.26,0,0,1-.256-.256V7.72A.26.26,0,0,1,2.8,7.465H17.042a.26.26,0,0,1,.256.256v9.322A.26.26,0,0,1,17.042,17.3ZM4.446,9.107H6.393a.26.26,0,0,1,.256.256V11.31a.26.26,0,0,1-.256.256H4.446a.26.26,0,0,1-.256-.256V9.362A.248.248,0,0,1,4.446,9.107Zm4.5,0H10.9a.26.26,0,0,1,.256.256V11.31a.26.26,0,0,1-.256.256H8.949a.26.26,0,0,1-.256-.256V9.362A.254.254,0,0,1,8.949,9.107Zm4.5,0H15.4a.26.26,0,0,1,.256.256V11.31a.26.26,0,0,1-.256.256H13.453a.26.26,0,0,1-.256-.256V9.362A.254.254,0,0,1,13.453,9.107ZM4.446,13.2H6.393a.26.26,0,0,1,.256.256V15.4a.26.26,0,0,1-.256.256H4.446A.26.26,0,0,1,4.19,15.4V13.453A.254.254,0,0,1,4.446,13.2Zm4.5,0H10.9a.26.26,0,0,1,.256.256V15.4a.26.26,0,0,1-.256.256H8.949a.26.26,0,0,1-.256-.256V13.453A.26.26,0,0,1,8.949,13.2Zm4.5,0H15.4a.26.26,0,0,1,.256.256V15.4a.26.26,0,0,1-.256.256H13.453A.26.26,0,0,1,13.2,15.4V13.453A.26.26,0,0,1,13.453,13.2Z" transform="translate(170.082 1136.082)"/>
    </g>
  </g>
</svg>
