<?xml version="1.0" standalone="no"?><!DOCTYPE svg PUBLIC "-//W3C//DTD SVG 1.1//EN" "http://www.w3.org/Graphics/SVG/1.1/DTD/svg11.dtd"><svg t="1567499547534" class="icon" viewBox="0 0 1024 1024" version="1.1" xmlns="http://www.w3.org/2000/svg" p-id="1966" xmlns:xlink="http://www.w3.org/1999/xlink" width="200" height="200"><defs><style type="text/css"></style></defs><path d="M696.832 326.656c-12.8-12.8-33.28-12.8-46.08 0L512 465.92 373.248 327.168c-12.8-12.8-33.28-12.8-46.08 0s-12.8 33.28 0 46.08L466.432 512l-139.264 139.264c-12.8 12.8-12.8 33.28 0 46.08s33.28 12.8 46.08 0L512 558.08l138.752 139.264c12.288 12.8 32.768 12.8 45.568 0.512l0.512-0.512c12.8-12.8 12.8-33.28 0-45.568L557.568 512l139.264-139.264c12.8-12.8 12.8-33.28 0-46.08 0 0.512 0 0 0 0zM512 51.2c-254.464 0-460.8 206.336-460.8 460.8s206.336 460.8 460.8 460.8 460.8-206.336 460.8-460.8-206.336-460.8-460.8-460.8z m280.064 740.864c-74.24 74.24-175.104 116.224-280.064 115.712-104.96 0-205.824-41.472-280.064-115.712S115.712 616.96 115.712 512s41.472-205.824 116.224-280.064C306.176 157.696 407.04 115.712 512 116.224c104.96 0 205.824 41.472 280.064 116.224 74.24 74.24 116.224 175.104 115.712 280.064 0.512 104.448-41.472 205.312-115.712 279.552z" fill="" p-id="1967"></path></svg>