<svg xmlns="http://www.w3.org/2000/svg" xmlns:xlink="http://www.w3.org/1999/xlink" width="20" height="20" viewBox="0 0 20 20">
  <defs>
    <style>
      .cls-1 {
        fill: none;
      }

      .cls-2 {
        clip-path: url(#clip-path);
      }

      .cls-3 {
        fill: #ccc;
      }
    </style>
    <clipPath id="clip-path">
      <rect class="cls-1" width="20" height="20"/>
    </clipPath>
  </defs>
  <g id="组件_4_2" data-name="组件 4 – 2" class="cls-2">
    <rect id="矩形_1647" data-name="矩形 1647" class="cls-1" width="20" height="20"/>
    <path id="减去_2" data-name="减去 2" class="cls-3" d="M-2441-1501h-18a1,1,0,0,1-1-1v-12a1,1,0,0,1,1-1h18a1,1,0,0,1,1,1v12A1,1,0,0,1-2441-1501Zm-4.327-4.573a.778.778,0,0,0-.572.22.724.724,0,0,0-.23.562.767.767,0,0,0,.23.561.781.781,0,0,0,.572.231.824.824,0,0,0,.572-.221.782.782,0,0,0,.242-.572.724.724,0,0,0-.23-.562A.792.792,0,0,0-2445.327-1505.573Zm-11.672.074v1h5v-1Zm11.793-5.508a1.267,1.267,0,0,1,.935.33,1.272,1.272,0,0,1,.319.9,1.307,1.307,0,0,1-.309.8l-.186.21a5.674,5.674,0,0,0-1.243,1.363,2.185,2.185,0,0,0-.22,1.045v.187h1.177v-.187a1.494,1.494,0,0,1,.176-.726,1.7,1.7,0,0,1,.463-.571,11.378,11.378,0,0,0,.923-.858,2.136,2.136,0,0,0,.418-1.343,1.978,1.978,0,0,0-.66-1.572,2.479,2.479,0,0,0-1.716-.583,2.576,2.576,0,0,0-1.914.7,2.567,2.567,0,0,0-.693,1.892h1.155a1.847,1.847,0,0,1,.3-1.121A1.223,1.223,0,0,1-2445.207-1511.007ZM-2457-1508.5v1h7v-1Zm0-3v1h7v-1Z" transform="translate(2460 1518)"/>
  </g>
</svg>
