<svg id="符号_33_1" data-name="符号 33 – 1" xmlns="http://www.w3.org/2000/svg" xmlns:xlink="http://www.w3.org/1999/xlink" width="32" height="32" viewBox="0 0 32 32">
  <defs>
    <style>
      .cls-1 {
        fill: url(#linear-gradient);
      }

      .cls-2 {
        clip-path: url(#clip-path);
      }

      .cls-3 {
        fill: url(#linear-gradient-2);
      }

      .cls-4, .cls-9 {
        fill: none;
      }

      .cls-5 {
        fill: #eefff7;
      }

      .cls-6 {
        fill: url(#linear-gradient-3);
      }

      .cls-7 {
        fill: url(#linear-gradient-4);
      }

      .cls-8 {
        fill: url(#linear-gradient-5);
      }

      .cls-9 {
        stroke: #eefff7;
        stroke-linecap: round;
        stroke-linejoin: round;
        stroke-width: 1.5px;
      }
    </style>
    <linearGradient id="linear-gradient" x1="0.5" x2="0.5" y2="1" gradientUnits="objectBoundingBox">
      <stop offset="0" stop-color="#d3ffe7"/>
      <stop offset="1" stop-color="#e8fff7"/>
    </linearGradient>
    <clipPath id="clip-path">
      <circle id="_30" data-name="30" class="cls-1" cx="16" cy="16" r="16"/>
    </clipPath>
    <linearGradient id="linear-gradient-2" x1="0.5" y1="0.019" x2="0.5" y2="0.996" gradientUnits="objectBoundingBox">
      <stop offset="0" stop-color="#5affb9"/>
      <stop offset="1" stop-color="#00b276"/>
    </linearGradient>
    <linearGradient id="linear-gradient-3" x1="0.5" x2="0.5" y2="1" gradientUnits="objectBoundingBox">
      <stop offset="0" stop-color="#01bc78"/>
      <stop offset="1" stop-color="#009b63"/>
    </linearGradient>
    <linearGradient id="linear-gradient-4" x1="0.5" y1="1" x2="0.5" y2="-0.252" gradientUnits="objectBoundingBox">
      <stop offset="0" stop-color="#00ffbc"/>
      <stop offset="1" stop-color="#00b276"/>
    </linearGradient>
    <linearGradient id="linear-gradient-5" y1="1" y2="-0.545" xlink:href="#linear-gradient-2"/>
  </defs>
  <g id="蒙版组_883" data-name="蒙版组 883" class="cls-2">
    <path id="路径_883" data-name="路径 883" class="cls-3" d="M2,0H16.824a2.087,2.087,0,0,1,2,2.165V24.146a2.087,2.087,0,0,1-2,2.165H2a2.087,2.087,0,0,1-2-2.165V2.165A2.087,2.087,0,0,1,2,0Z" transform="translate(9.831 5.689)"/>
  </g>
  <rect id="矩形_892" data-name="矩形 892" class="cls-4" width="29" height="29" transform="translate(1 3)"/>
  <rect id="矩形_902" data-name="矩形 902" class="cls-5" width="12.55" height="1.345" rx="0.672" transform="translate(12.968 11.877)"/>
  <rect id="矩形_903" data-name="矩形 903" class="cls-5" width="12.55" height="1.345" rx="0.672" transform="translate(12.968 16.21)"/>
  <rect id="矩形_904" data-name="矩形 904" class="cls-5" width="12.55" height="1.345" rx="0.672" transform="translate(12.968 20.544)"/>
  <path id="路径_746" data-name="路径 746" class="cls-6" d="M29.938-149.859l-15.094,2.438v-3.7Z" transform="translate(-7 177.75)"/>
  <path id="路径_747" data-name="路径 747" class="cls-7" d="M3-158.588A9.412,9.412,0,0,1,12.412-168a9.412,9.412,0,0,1,9.412,9.412Z" transform="translate(-0.655 186.135)"/>
  <ellipse id="椭圆_163" data-name="椭圆 163" class="cls-8" cx="7.171" cy="7.395" rx="7.171" ry="7.395" transform="translate(4.586 3)"/>
  <path id="路径_52" data-name="路径 52" class="cls-9" d="M17.658-174.544a3.072,3.072,0,0,0,2.913,1.778,2.78,2.78,0,0,0,2.772-1.778" transform="translate(-7.967 189.063)"/>
</svg>
