<?xml version="1.0" standalone="no"?><!DOCTYPE svg PUBLIC "-//W3C//DTD SVG 1.1//EN" "http://www.w3.org/Graphics/SVG/1.1/DTD/svg11.dtd"><svg t="1568161952424" class="icon" viewBox="0 0 1024 1024" version="1.1" xmlns="http://www.w3.org/2000/svg" p-id="2113" xmlns:xlink="http://www.w3.org/1999/xlink" width="200" height="200"><defs><style type="text/css"></style></defs><path d="M928.783 894.959L761.478 725.6a38.529 38.529 0 0 0-6.06-4.993c66.309-69.825 107.128-164.078 107.128-267.743 0-214.607-174.598-389.205-389.205-389.205S84.136 238.257 84.136 452.864 258.734 842.07 473.341 842.07c84.392 0 162.533-27.086 226.368-72.902 1.794 3.73 4.065 7.292 7.137 10.401l167.305 169.359c14.902 15.087 39.215 15.235 54.3 0.332 15.087-14.903 15.236-39.214 0.332-54.301zM150.86 452.864c0-177.824 144.657-322.481 322.481-322.481S795.822 275.04 795.822 452.864 651.165 775.345 473.341 775.345 150.86 630.688 150.86 452.864z" p-id="2114"></path></svg>