<?xml version="1.0" standalone="no"?><!DOCTYPE svg PUBLIC "-//W3C//DTD SVG 1.1//EN" "http://www.w3.org/Graphics/SVG/1.1/DTD/svg11.dtd"><svg t="1567563845391" class="icon" viewBox="0 0 1024 1024" version="1.1" xmlns="http://www.w3.org/2000/svg" p-id="3006" xmlns:xlink="http://www.w3.org/1999/xlink" width="200" height="200"><defs><style type="text/css"></style></defs><path d="M904 64c14.8 0 28.9 5.9 39.5 16.5C954.1 91.1 960 105.2 960 120v784c0 14.8-5.9 28.9-16.5 39.5-10.6 10.6-24.7 16.5-39.5 16.5H120c-14.8 0-28.9-5.9-39.5-16.5C69.9 932.9 64 918.8 64 904V120c0-14.8 5.9-28.9 16.5-39.5C91.1 69.9 105.2 64 120 64h784m0-64H120C54 0 0 54 0 120v784c0 66 54 120 120 120h784c66 0 120-54 120-120V120c0-66-54-120-120-120z" fill="#E6E6E6" p-id="3007"></path></svg>