<svg xmlns="http://www.w3.org/2000/svg" xmlns:xlink="http://www.w3.org/1999/xlink" width="32" height="32" viewBox="0 0 32 32">
  <defs>
    <style>
      .cls-1 {
        fill: none;
      }

      .cls-2 {
        clip-path: url(#clip-path);
      }

      .cls-3 {
        fill: url(#linear-gradient);
      }

      .cls-4 {
        fill: url(#linear-gradient-2);
      }

      .cls-5 {
        opacity: 0.3;
      }

      .cls-6 {
        fill: url(#linear-gradient-3);
      }

      .cls-7 {
        fill: #fff;
      }
    </style>
    <clipPath id="clip-path">
      <rect class="cls-1" width="32" height="32"/>
    </clipPath>
    <linearGradient id="linear-gradient" x1="0.5" x2="0.5" y2="1" gradientUnits="objectBoundingBox">
      <stop offset="0" stop-color="#b7d8ff"/>
      <stop offset="1" stop-color="#f5faff"/>
    </linearGradient>
    <linearGradient id="linear-gradient-2" x1="0.5" x2="0.5" y2="1" gradientUnits="objectBoundingBox">
      <stop offset="0" stop-color="#1d51ff"/>
      <stop offset="1" stop-color="#65acff"/>
    </linearGradient>
    <linearGradient id="linear-gradient-3" x1="1" y1="0.585" x2="0" y2="0.583" gradientUnits="objectBoundingBox">
      <stop offset="0" stop-color="#3e7aff"/>
      <stop offset="1" stop-color="#2e8dff"/>
    </linearGradient>
  </defs>
  <g id="组件_18_2" data-name="组件 18 – 2" class="cls-2">
    <circle id="_30" data-name="30" class="cls-3" cx="16" cy="16" r="16"/>
    <path id="交叉_1" data-name="交叉 1" class="cls-4" d="M0,0H18.722l6.345,12.014a15.926,15.926,0,0,1-9.108,2.844A16,16,0,0,1,0,0Z" transform="translate(0.041 17.142)"/>
    <path id="交叉_2" data-name="交叉 2" class="cls-5" d="M0,0,21.531,4.526,7.848,11.537A16.013,16.013,0,0,1,0,0Z" transform="translate(0.168 18.331)"/>
    <rect id="矩形_1749" data-name="矩形 1749" class="cls-6" width="32" height="18.286" rx="3" transform="translate(0 4.571)"/>
    <path id="路径_975" data-name="路径 975" class="cls-7" d="M-8.475-1.894-9.039-4.8h-.023l-.563,2.908ZM-11.315.912l1.792-8.024h.958L-6.773.912h-1.15L-8.261-.813H-9.827L-10.165.912ZM-5,.912V-5.9l-1.15.845V-6.267L-5-7.112h1.15V.912Zm2.829,0V-.17L-.1-4.081a1.428,1.428,0,0,0,.18-.513Q.1-4.813.1-5.14.1-5.287.1-5.45a.752.752,0,0,0-.062-.287.534.534,0,0,0-.169-.208A.538.538,0,0,0-.462-6.03a.568.568,0,0,0-.411.147.567.567,0,0,0-.152.428V-4.8h-1.15v-.631a1.7,1.7,0,0,1,.135-.676,1.745,1.745,0,0,1,.372-.552,1.688,1.688,0,0,1,.541-.378A1.64,1.64,0,0,1-.451-7.18a1.685,1.685,0,0,1,.772.163,1.54,1.54,0,0,1,.535.445,1.941,1.941,0,0,1,.3.642,2.974,2.974,0,0,1,.1.766q0,.293-.011.49a2.966,2.966,0,0,1-.045.378,1.664,1.664,0,0,1-.113.361q-.079.18-.214.44L-.823-.238H1.251V.912ZM3.381-3.731A1.453,1.453,0,0,0,4.1-3.855q.2-.124.2-.575V-5.467a.56.56,0,0,0-.152-.406A.545.545,0,0,0,3.73-6.03a.485.485,0,0,0-.434.192.665.665,0,0,0-.13.372v.654H2.017v-.665a1.67,1.67,0,0,1,.135-.665,1.617,1.617,0,0,1,.372-.541,1.848,1.848,0,0,1,.552-.361,1.7,1.7,0,0,1,.676-.135,1.5,1.5,0,0,1,.783.186A1.8,1.8,0,0,1,5-6.617a2.463,2.463,0,0,1,.2.27,1.316,1.316,0,0,1,.141.327,4.494,4.494,0,0,1,.1,1.1q0,.417-.017.676a1.415,1.415,0,0,1-.085.428.857.857,0,0,1-.22.3,2.606,2.606,0,0,1-.389.27,2.183,2.183,0,0,1,.411.316.928.928,0,0,1,.208.338,1.746,1.746,0,0,1,.079.479q.011.276.011.7,0,.394-.017.654a3.364,3.364,0,0,1-.051.428,1.336,1.336,0,0,1-.09.3,1.855,1.855,0,0,1-.147.259,1.821,1.821,0,0,1-.547.524,1.625,1.625,0,0,1-.873.208,2.026,2.026,0,0,1-.575-.09A1.567,1.567,0,0,1,2.592.6a1.591,1.591,0,0,1-.411-.53,1.776,1.776,0,0,1-.163-.8v-.654h1.15v.6a.653.653,0,0,0,.152.445A.518.518,0,0,0,3.73-.17a.518.518,0,0,0,.411-.175.687.687,0,0,0,.152-.468v-1.15a.791.791,0,0,0-.18-.62.5.5,0,0,0-.276-.113,3.71,3.71,0,0,0-.456-.023ZM8.216.912V-.283H5.928V-1.365L7.584-7.112H8.8L7.077-1.365H8.216V-3.653h1.15v2.288h.552V-.283H9.365V.912Zm5.612-8.024V-6.03H11.551v2.164a1.288,1.288,0,0,1,.406-.265,1.379,1.379,0,0,1,.552-.107,1.311,1.311,0,0,1,.952.355,1.419,1.419,0,0,1,.366,1.065V-.745a1.753,1.753,0,0,1-.141.721,1.688,1.688,0,0,1-.378.541,1.624,1.624,0,0,1-.547.344,1.8,1.8,0,0,1-.648.118,1.8,1.8,0,0,1-.648-.118A1.624,1.624,0,0,1,10.92.517a1.688,1.688,0,0,1-.378-.541A1.753,1.753,0,0,1,10.4-.745v-.338h1.15V-.79a.617.617,0,0,0,.163.456.572.572,0,0,0,.423.163.508.508,0,0,0,.4-.158.637.637,0,0,0,.141-.44V-2.65a.586.586,0,0,0-.152-.406.5.5,0,0,0-.389-.169.55.55,0,0,0-.248.051.643.643,0,0,0-.169.118.468.468,0,0,0-.1.147q-.056.1-.068.124H10.537V-7.112Z" transform="translate(14.744 16.894)"/>
  </g>
</svg>
