<svg xmlns="http://www.w3.org/2000/svg" xmlns:xlink="http://www.w3.org/1999/xlink" width="16" height="16" viewBox="0 0 16 16">
  <defs>
    <style>
      .cls-1 {
        fill: none;
      }

      .cls-2 {
        clip-path: url(#clip-path);
      }

      .cls-3 {
        fill: #ff4040;
      }
    </style>
    <clipPath id="clip-path">
      <rect class="cls-1" width="16" height="16"/>
    </clipPath>
  </defs>
  <g id="组件_17_1" data-name="组件 17 – 1" class="cls-2">
    <rect id="矩形_1748" data-name="矩形 1748" class="cls-1" width="16" height="16"/>
    <path id="路径_421" data-name="路径 421" class="cls-3" d="M-100.328,63.911-106.6,53.039c-.768-1.329-2.023-1.329-2.79,0l-6.277,10.872c-.768,1.331-.14,2.416,1.395,2.416h12.556c1.534,0,2.161-1.085,1.395-2.416Zm-8.535-7.787a1.122,1.122,0,0,1,.862-.366,1.131,1.131,0,0,1,.862.361,1.275,1.275,0,0,1,.337.9c0,.312-.468,2.6-.624,4.27h-1.128c-.137-1.667-.645-3.958-.645-4.27a1.276,1.276,0,0,1,.337-.9Zm1.709,7.927A1.172,1.172,0,0,1-108,64.4a1.171,1.171,0,0,1-.846-.346,1.126,1.126,0,0,1-.354-.838,1.154,1.154,0,0,1,.354-.845,1.158,1.158,0,0,1,.846-.355,1.158,1.158,0,0,1,.846.355,1.155,1.155,0,0,1,.354.845,1.127,1.127,0,0,1-.354.838Zm0,0" transform="translate(116 -51.042)"/>
  </g>
</svg>
